<svg xmlns="http://www.w3.org/2000/svg" viewBox="1 42 169 78">
  <path d="M8.25,105.3q1.25,1.1,3.75,1.1q5.8,0,12.3,-2.7q6.5,-2.7,12.2,-7.3q2.8,-2.3,5.1,-4.75q2.3,-2.45,4,-5.15q1.8,-2.9,1.8,-5q0,-2.3,-1.9,-3.6q-1.9,-1.3,-5.1,-1.3q-1.7,0,-3.5,0.3l-3.5,0.7q-6,1.2,-10.55,2q-4.55,0.8,-8.35,0.8q-7.9,0,-7.9,-4q0,-1.1,0.4,-1.9q1.6,-4.3,5.85,-8.55q4.25,-4.25,10.2,-8.05q5.95,-3.8,12.65,-6.6q9.9,-4.1,17.6,-4.9q4.4,-0.4,6.75,1.3q2.35,1.7,2.35,5.1q0,2.2,-0.8,4.6q-0.1,0.4,-0.15,0.65q-0.05,0.25,-0.05,0.35q0,0.4,0.2,0.75q0.2,0.35,0.4,0.35q0.5,0,1.2,-1q2.5,-4,2.5,-7.5q0,-3.8,-2.95,-6q-2.95,-2.2,-7.95,-2.2q-6.5,0,-13.95,2.35q-7.45,2.35,-14.75,6.3q-7.3,3.95,-13.2,8.95q-8.7,7.4,-10.7,14q-0.6,2.1,-0.6,3.6q0,3.3,2.35,4.65q2.35,1.35,6.65,1.35q3.7,0,8.4,-0.95q4.7,-0.95,10.8,-2.25l5,-1.1q1.1,-0.2,2,-0.35q0.9,-0.15,1.6,-0.15q4,0,4,3.1q0,2.4,-2.2,5.6q-3,4.6,-7.6,8.15q-4.6,3.55,-9.9,5.55q-5.3,2,-10.3,2.2q-1.3,0.1,-2.3,-0.8q-1,-0.9,-1,-2q0,-2,2.8,-4.9q0.9,-0.9,0.9,-1.6q0,-0.3,-0.1,-0.4q-0.2,-0.2,-0.5,-0.2q-0.4,0.1,-1,0.6q-2,1.8,-3.1,3.9q-1.1,2.1,-1.1,3.9q0,1.9,1.25,3zm130.85,13.2q1.4,2,3.6,2q1.3,0,2.6,-0.8q6.2,-3.6,11.25,-10.7q5.05,-7.1,8.35,-15.4q3.2,-8.4,4.4,-15.7q0,-0.3,0.3,-1.6q0.3,-1.4,0.3,-2.3q0,-0.9,-0.3,-0.9q-0.3,0,-0.7,0.4q-0.6,0.7,-1.3,1.5q-0.7,0.8,-1.5,1.6q-4.6,5.3,-7.9,8.75q-3.3,3.45,-5.5,5.05q-2.2,1.4,-3.4,1.4q-1.8,0,-1.8,-2.2l0,-0.75q0,-0.35,0.1,-0.55q0.6,-4.7,4.2,-12.9q0.419,-0.7779,0.193,-1.0903q-0.151,-0.2097,-0.593,-0.2097q-0.9,0,-1.6,1.3q-0.7,1.6,-1.45,3.5q-0.75,1.9,-1.75,4.2l-1.3,3.2q-2.7,6.7,-2.7,9.6q0,1.8,1,2.5q0.8,0.5,2,0.5q1.4,0,3.05,-0.85q1.65,-0.85,3.25,-2.75l1.6,-1.9q2.8,-3.2,4.7,-5.5q1.9,-2.3,3.1,-3.6q1.5,-1.6,2.2,-1.6q0.4,0,0.4,0.5q-0.8,3.8,-2.4,8.5q-1.6,4.7,-3.8,9.45q-2.2,4.75,-5,8.85q-2.1,3,-4.25,5.05q-2.15,2.05,-4.55,2.65l-0.8,0.2q-1.6,0,-2.65,-1.9q-1.05,-1.9,-1.05,-3.7q0,-0.2,0.05,-0.45q0.05,-0.25,0.15,-0.55q0.3,-0.8,0.3,-1.3q0,-0.6,-0.4,-0.6q-0.5,0,-1.3,1.7q-0.5,1.2,-0.5,2.7q0,2.7,1.4,4.7zm-41.4,-14.6q1.2,0.3,2.8,0.3q3.1,0,5.5,-0.7q1.4,-0.3,3.4,-0.9q2,-0.6,4.05,-1.3q2.05,-0.7,3.6,-1.35q1.55,-0.65,1.85,-0.95q0.6,-0.6,0.6,-0.7q0,-0.3,-0.7,-0.3q-1.2,0,-2.9,0.4q-1.9,0.4,-2.4,0.6q0.1,-0.3,0.1,-0.9q0,-1.2,-0.55,-2.8q-0.55,-1.6,-1.55,-3.8q-0.4,-1,-1.25,-3.15q-0.85,-2.15,-0.85,-3.75q0,-1.3,0.6,-2.2q1.5,-2.5,3.9,-4.4q2.4,-1.9,4.5,-1.9q0.3,0,1.1,0.2q0.7,0.3,0.7,2q0,0.4,-0.05,1q-0.05,0.6,-0.15,1.4l-0.1,2q0,1.4,0.5,1.4q0.3,0,0.8,-0.5q0.9,-1,1.4,-2.55q0.5,-1.55,0.5,-3.05q0,-2,-0.6,-2.6q-0.9,-1,-3,-1q-1.3,0,-2.5,0.3q-2.7,0.7,-5.35,2.75q-2.65,2.05,-4.4,4.75q-1.75,2.7,-1.75,5.5q0,2.3,1.3,4.2q2.1,3.1,2.1,5.1q0,2.9,-4.8,4.3q-0.7,0.1,-1.8,0.3q-1.2,0.1,-2.1,0.3q-0.5,0.2,-2,0.3q-1.6,0.1,-1.6,0.9q0,0.5,1.1,0.8zm-46.2,-3.9q1.6,1.1,3.7,1.1q2.4,0,5.35,-1.4q2.95,-1.4,5.4,-3.3q2.45,-1.9,3.45,-3.5q0.1338,-0.6021,-0.0904,-0.8014q-0.111,-0.0986,-0.3096,-0.0986q-0.2,0,-1.3,0.8q-2.4,2,-3.8,3q-1.4,1,-2.45,1.5q-1.05,0.5,-2.65,1.1q-0.9,0.4,-2.2,0.4q-1.7,0,-2.65,-1.05q-0.95,-1.05,-0.95,-2.45q0,-0.3,0.05,-0.6q0.05,-0.3,0.15,-0.6q3.3,-1.7,6.45,-3.55q3.15,-1.85,5.5,-4.25q2.35,-2.4,3.05,-5.5q0.4,-1.9,-1.35,-3.1q-1.75,-1.2,-3.95,-1.2q-1.7,0,-2.7,0.7q-5.7,3.8,-8.5,8.3q-2.8,4.5,-2.8,8.5q0,4,2.6,6zm76.5,1.1q-2.1,0,-3.7,-1.1q-2.6,-2,-2.6,-6q0,-4,2.8,-8.5q2.8,-4.5,8.5,-8.3q1,-0.7,2.7,-0.7q2.2,0,3.95,1.2q1.75,1.2,1.35,3.1q-0.7,3.1,-3.05,5.5q-2.35,2.4,-5.5,4.25q-3.15,1.85,-6.45,3.55q-0.1,0.3,-0.15,0.6q-0.05,0.3,-0.05,0.6q0,1.4,0.95,2.45q0.95,1.05,2.65,1.05q1.3,0,2.2,-0.4q1.6,-0.6,2.65,-1.1q1.05,-0.5,2.45,-1.5q1.4,-1,3.8,-3q1.1,-0.8,1.3,-0.8q0.199,0,0.31,0.0986q0.224,0.1993,0.09,0.8014q-1,1.6,-3.45,3.5q-2.45,1.9,-5.4,3.3q-2.95,1.4,-5.35,1.4zm-70.9,-11.3q-2.5,1.6,-3.3,1.6q1.1,-4.4,4.2,-7.4q4.5,-4.5,6.4,-4.5q0.6,0,0.9,0.5q0.3,0.4,0.3,0.9q0,1.9,-3.8,5.4q-2.2,1.9,-4.7,3.5zm69.5,1.6q0.8,0,3.3,-1.6q2.5,-1.6,4.7,-3.5q3.8,-3.5,3.8,-5.4q0,-0.5,-0.3,-0.9q-0.3,-0.5,-0.9,-0.5q-1.9,0,-6.4,4.5q-3.1,3,-4.2,7.4zm-56.8,10.2q-1.8,0,-1.8,-1.4q0,-0.9,0.65,-2.3q0.65,-1.4,1.35,-2.7q1.9,-3.4,3.5,-6.6q1.6,-3.2,3.1,-6.8q0.7,-1.6,2.1,-1.6q0.6176,0,0.8792,0.3052q0.3737,0.436,0.0208,1.4948q-0.6,1.5,-1.2,2.7q-2.8,5.7,-2.8,7.7q0,0.9,0.6,1.1l2.1,-1.65q0.7,-0.55,0.8,-0.65q1.4,-1.1,3.15,-2.55q1.75,-1.45,3.85,-3.35q3.3,-3,5.5,-3q0.6722,0,1.1522,0.3037q1.4482,0.9162,1.1478,4.5963q-0.1,1.9,0,3.7q0.1,0.4,0.1,1.15l0,1.75q0,1,1.2,1q1.4,0,2.6,-0.8l2.2,-1.5l2.2,-1.4q0.2,-0.1,0.7,-0.1q0.192,0,0.261,0.0922q0.147,0.1958,-0.261,0.8078q-6.3,7.8,-10.4,7.8q-0.8,0,-1.6,-0.3q-0.7,-0.3,-1,-1.75q-0.3,-1.45,-0.35,-3.15q-0.05,-1.7,-0.05,-2.6l0.1,-3.3q0,-2.1,-1.1,-2.1q-2.6,0,-12.8,10.7q-0.8,1,-2.5,2.7q-1.7,1.7,-3.4,1.7z" fill="#FF6D00" fill-opacity="1" fill-rule="evenodd"/>
</svg>